<svg xmlns="http://www.w3.org/2000/svg" width="28" height="42" fill="none" viewBox="0 0 28 42">
  <path fill="#EC6A33" d="M5.26 22.43c.8 2.48 2.34 3.69 3.94 3.28 1.6-.41 2.5-2.68 2-5-.38-1.81-1-3.57-1.35-5.38C8.95 10.7 12.19 4.17 16.66 2c-2.17 5.42.14 9.4 3.57 13.12 2.84 3.07 5.56 6.3 6.41 10.63 2 10-5.75 16.35-14 15.09-.91-.126-1.809-.32-2.69-.58-7.14-2.24-10.52-9-8.25-16.78.61-2.07 1.61-4 2.38-6 .39 1.63.66 3.33 1.18 4.95Zm-1.63 2.05a11 11 0 0 0-.23 6.43c1.34 5.5 7.39 9.07 13.15 7.85 5.28-1.11 8.21-4.53 8.39-9.87.11-3.32-1.29-6.08-3.15-8.67-2.81-3.94-7-6.93-8-12.65a23.12 23.12 0 0 0-1.34 2.33 10.19 10.19 0 0 0-.18 6.91c.554 1.7.91 3.458 1.06 5.24a5.47 5.47 0 0 1-3.2 5.57c-2.08.77-4 0-5.8-2.32-.17-.21-.38-.41-.7-.82Z"/>
  <path fill="#EC6A33" d="M3.63 24.48a11 11 0 0 0-.23 6.43c1.34 5.5 7.39 9.07 13.15 7.85 5.28-1.11 8.21-4.53 8.39-9.87.11-3.32-1.29-6.08-3.15-8.67-2.81-3.94-7-6.93-8-12.65a23.12 23.12 0 0 0-1.34 2.33 10.19 10.19 0 0 0-.18 6.91c.554 1.7.91 3.458 1.06 5.24a5.47 5.47 0 0 1-3.2 5.57c-2.08.77-4 0-5.8-2.32-.17-.21-.38-.41-.7-.82Z"/>
  <path stroke="#EC6A33" stroke-miterlimit="10" stroke-width=".5" d="M5.26 22.43c.8 2.48 2.34 3.69 3.94 3.28 1.6-.41 2.5-2.68 2-5-.38-1.81-1-3.57-1.35-5.38C8.95 10.7 12.19 4.17 16.66 2c-2.17 5.42.14 9.4 3.57 13.12 2.84 3.07 5.56 6.3 6.41 10.63 2 10-5.75 16.35-14 15.09-.91-.126-1.809-.32-2.69-.58-7.14-2.24-10.52-9-8.25-16.78.61-2.07 1.61-4 2.38-6 .39 1.63.66 3.33 1.18 4.95Zm-1.63 2.05a11 11 0 0 0-.23 6.43c1.34 5.5 7.39 9.07 13.15 7.85 5.28-1.11 8.21-4.53 8.39-9.87.11-3.32-1.29-6.08-3.15-8.67-2.81-3.94-7-6.93-8-12.65a23.12 23.12 0 0 0-1.34 2.33 10.19 10.19 0 0 0-.18 6.91c.554 1.7.91 3.458 1.06 5.24a5.47 5.47 0 0 1-3.2 5.57c-2.08.77-4 0-5.8-2.32-.17-.21-.38-.41-.7-.82Z"/>
  <path stroke="#EC6A33" stroke-miterlimit="10" stroke-width=".5" d="M3.63 24.48a11 11 0 0 0-.23 6.43c1.34 5.5 7.39 9.07 13.15 7.85 5.28-1.11 8.21-4.53 8.39-9.87.11-3.32-1.29-6.08-3.15-8.67-2.81-3.94-7-6.93-8-12.65a23.12 23.12 0 0 0-1.34 2.33 10.19 10.19 0 0 0-.18 6.91c.554 1.7.91 3.458 1.06 5.24a5.47 5.47 0 0 1-3.2 5.57c-2.08.77-4 0-5.8-2.32-.17-.21-.38-.41-.7-.82Z"/>
  <path fill="#181818" stroke="#181818" stroke-miterlimit="10" d="M5.26 22.43c.8 2.48 2.34 3.69 3.94 3.28 1.6-.41 2.5-2.68 2-5-.38-1.81-1-3.57-1.35-5.38C8.95 10.7 12.19 4.17 16.66 2c-2.17 5.42.14 9.4 3.57 13.12 2.84 3.07 5.56 6.3 6.41 10.63 2 10-5.75 16.35-14 15.09-.91-.126-1.809-.32-2.69-.58-7.14-2.24-10.52-9-8.25-16.78.61-2.07 1.61-4 2.38-6 .39 1.63.66 3.33 1.18 4.95Zm-1.63 2.05a11 11 0 0 0-.23 6.43c1.34 5.5 7.39 9.07 13.15 7.85 5.28-1.11 8.21-4.53 8.39-9.87.11-3.32-1.29-6.08-3.15-8.67-2.81-3.94-7-6.93-8-12.65a23.12 23.12 0 0 0-1.34 2.33 10.19 10.19 0 0 0-.18 6.91c.554 1.7.91 3.458 1.06 5.24a5.47 5.47 0 0 1-3.2 5.57c-2.08.77-4 0-5.8-2.32-.17-.21-.38-.41-.7-.82Z"/>
</svg>