<?xml version="1.0" encoding="UTF-8"?> <svg xmlns="http://www.w3.org/2000/svg" width="204" height="58" viewBox="0 0 204 58" fill="none"><rect y="7.98535" width="202.41" height="49.478" rx="8.996" transform="rotate(-1.98174 0 7.98535)" fill="#181818"></rect><path d="M78.0777 39.393L77.5459 24.0243L79.2769 23.9644L79.3586 26.3257L79.5187 26.3202C79.7981 25.5158 80.2868 24.8744 80.9848 24.3961C81.6893 23.9109 82.5452 23.6509 83.5524 23.6161C84.613 23.5794 85.4921 23.7994 86.1898 24.2761C86.894 24.746 87.4311 25.4086 87.8013 26.264L87.9314 26.2595C88.2487 25.3937 88.789 24.6971 89.5521 24.1698C90.3217 23.6356 91.2668 23.3491 92.3874 23.3104C93.8149 23.261 94.9577 23.6722 95.816 24.5441C96.6741 25.4093 97.1329 26.7024 97.1925 28.4234L97.5487 38.7192L95.7677 38.7809L95.4115 28.485C95.3694 27.271 95.0278 26.3712 94.3864 25.7857C93.7451 25.2001 92.9174 24.9249 91.9035 24.96C90.7295 25.0006 89.8381 25.3921 89.2294 26.1344C88.6206 26.8768 88.3354 27.8016 88.3737 28.9089L88.7237 39.0246L86.9027 39.0876L86.5409 28.6317C86.5049 27.5911 86.1856 26.7607 85.5832 26.1404C84.9807 25.5201 84.1525 25.2282 83.0985 25.2647C82.3915 25.2891 81.7604 25.4846 81.2055 25.8511C80.6571 26.2173 80.2303 26.7163 79.9249 27.3479C79.626 27.9727 79.4903 28.6853 79.518 29.4858L79.8587 39.3313L78.0777 39.393Z" fill="white"></path><path d="M105.16 38.8065C104.232 38.8386 103.379 38.6878 102.599 38.3541C101.82 38.0138 101.191 37.5079 100.714 36.8366C100.236 36.1586 99.9803 35.3259 99.9461 34.3387C99.9198 33.5783 100.041 32.933 100.31 32.4027C100.579 31.8725 100.971 31.4315 101.486 31.0798C102.002 30.728 102.616 30.443 103.33 30.2246C104.044 30.0062 104.832 29.8287 105.696 29.6919C106.553 29.5554 107.276 29.4369 107.867 29.3363C108.465 29.2355 108.917 29.0929 109.225 28.9086C109.532 28.7244 109.679 28.4388 109.666 28.0519L109.654 27.6917C109.617 26.6444 109.275 25.8315 108.628 25.2528C107.986 24.6673 107.082 24.3947 105.915 24.4351C104.807 24.4734 103.912 24.7482 103.228 25.2593C102.551 25.7703 102.084 26.3608 101.827 27.0309L100.115 26.479C100.433 25.6266 100.89 24.9396 101.486 24.418C102.082 23.8899 102.757 23.5025 103.51 23.2561C104.262 23.003 105.029 22.8629 105.809 22.8359C106.396 22.8156 107.009 22.8712 107.648 23.0027C108.294 23.134 108.897 23.3802 109.457 23.7415C110.017 24.0962 110.478 24.6044 110.842 25.2664C111.205 25.9217 111.405 26.7629 111.44 27.7902L111.801 38.2261L110.02 38.2877L109.936 35.8563L109.826 35.8601C109.628 36.3211 109.327 36.7723 108.921 37.2138C108.516 37.6552 108.001 38.0236 107.377 38.3191C106.752 38.6145 106.013 38.7769 105.16 38.8065ZM105.343 37.1673C106.291 37.1345 107.104 36.896 107.783 36.4517C108.462 36.0075 108.976 35.432 109.326 34.7254C109.682 34.0118 109.845 33.2348 109.816 32.3944L109.739 30.1731C109.61 30.3045 109.391 30.4256 109.081 30.5365C108.778 30.6472 108.424 30.7496 108.02 30.8437C107.622 30.9309 107.224 31.0081 106.826 31.0753C106.427 31.1426 106.069 31.2017 105.75 31.2528C104.886 31.3895 104.152 31.5819 103.546 31.83C102.94 32.078 102.481 32.4078 102.168 32.8193C101.854 33.2242 101.708 33.7368 101.73 34.3571C101.762 35.291 102.121 36.0032 102.806 36.4937C103.49 36.9776 104.336 37.2021 105.343 37.1673Z" fill="white"></path><path d="M116.55 32.2515L116.45 29.9209L116.85 29.907L123.804 22.4237L126.055 22.3458L119.187 29.716L119.028 29.7515L116.55 32.2515ZM115.13 38.1109L114.421 17.6193L116.202 17.5577L116.911 38.0493L115.13 38.1109ZM124.706 37.7796L118.189 30.1011L119.427 28.8261L126.987 37.7006L124.706 37.7796Z" fill="white"></path><path d="M134.116 37.7745C132.682 37.8241 131.43 37.5335 130.36 36.9027C129.289 36.2652 128.447 35.3627 127.832 34.1953C127.223 33.0209 126.892 31.6566 126.839 30.1024C126.785 28.5548 127.021 27.1709 127.547 25.9506C128.078 24.7234 128.836 23.7522 129.82 23.0369C130.81 22.3148 131.969 21.9308 133.296 21.8848C134.13 21.856 134.939 21.9816 135.723 22.2617C136.508 22.5351 137.217 22.9746 137.853 23.5804C138.495 24.1793 139.012 24.9461 139.405 25.8809C139.798 26.8089 140.016 27.9167 140.061 29.2041L140.091 30.0846L128.085 30.5L128.03 28.9291L138.216 28.5767C138.182 27.5895 137.951 26.7092 137.524 25.936C137.103 25.1558 136.531 24.5478 135.808 24.112C135.091 23.676 134.273 23.4739 133.352 23.5058C132.378 23.5395 131.53 23.8293 130.808 24.3752C130.085 24.9211 129.529 25.6282 129.138 26.4966C128.754 27.3647 128.576 28.3058 128.605 29.32L128.637 30.2605C128.68 31.4812 128.927 32.5412 129.378 33.4405C129.837 34.3329 130.465 35.0158 131.263 35.489C132.06 35.9623 132.993 36.1805 134.06 36.1436C134.787 36.1184 135.42 35.983 135.959 35.7372C136.505 35.4913 136.958 35.1717 137.319 34.7786C137.685 34.3786 137.958 33.9451 138.135 33.4781L139.845 33.9699C139.634 34.625 139.271 35.2353 138.756 35.8007C138.248 36.3659 137.603 36.829 136.821 37.19C136.045 37.5441 135.144 37.7389 134.116 37.7745Z" fill="white"></path><path d="M78.0777 39.393L77.5459 24.0243L79.2769 23.9644L79.3586 26.3257L79.5187 26.3202C79.7981 25.5158 80.2868 24.8744 80.9848 24.3961C81.6893 23.9109 82.5452 23.6509 83.5524 23.6161C84.613 23.5794 85.4921 23.7994 86.1898 24.2761C86.894 24.746 87.4311 25.4086 87.8013 26.264L87.9314 26.2595C88.2487 25.3937 88.789 24.6971 89.5521 24.1698C90.3217 23.6356 91.2668 23.3491 92.3874 23.3104C93.8149 23.261 94.9577 23.6722 95.816 24.5441C96.6741 25.4093 97.1329 26.7024 97.1925 28.4234L97.5487 38.7192L95.7677 38.7809L95.4115 28.485C95.3694 27.271 95.0278 26.3712 94.3864 25.7857C93.7451 25.2001 92.9174 24.9249 91.9035 24.96C90.7295 25.0006 89.8381 25.3921 89.2294 26.1344C88.6206 26.8768 88.3354 27.8016 88.3737 28.9089L88.7237 39.0246L86.9027 39.0876L86.5409 28.6317C86.5049 27.5911 86.1856 26.7607 85.5832 26.1404C84.9807 25.5201 84.1525 25.2282 83.0985 25.2647C82.3915 25.2891 81.7604 25.4846 81.2055 25.8511C80.6571 26.2173 80.2303 26.7163 79.9249 27.3479C79.626 27.9727 79.4903 28.6853 79.518 29.4858L79.8587 39.3313L78.0777 39.393Z" stroke="white" stroke-width="0.105023"></path><path d="M105.16 38.8065C104.232 38.8386 103.379 38.6878 102.599 38.3541C101.82 38.0138 101.191 37.5079 100.714 36.8366C100.236 36.1586 99.9803 35.3259 99.9461 34.3387C99.9198 33.5783 100.041 32.933 100.31 32.4027C100.579 31.8725 100.971 31.4315 101.486 31.0798C102.002 30.728 102.616 30.443 103.33 30.2246C104.044 30.0062 104.832 29.8287 105.696 29.6919C106.553 29.5554 107.276 29.4369 107.867 29.3363C108.465 29.2355 108.917 29.0929 109.225 28.9086C109.532 28.7244 109.679 28.4388 109.666 28.0519L109.654 27.6917C109.617 26.6444 109.275 25.8315 108.628 25.2528C107.986 24.6673 107.082 24.3947 105.915 24.4351C104.807 24.4734 103.912 24.7482 103.228 25.2593C102.551 25.7703 102.084 26.3608 101.827 27.0309L100.115 26.479C100.433 25.6266 100.89 24.9396 101.486 24.418C102.082 23.8899 102.757 23.5025 103.51 23.2561C104.262 23.003 105.029 22.8629 105.809 22.8359C106.396 22.8156 107.009 22.8712 107.648 23.0027C108.294 23.134 108.897 23.3802 109.457 23.7415C110.017 24.0962 110.478 24.6044 110.842 25.2664C111.205 25.9217 111.405 26.7629 111.44 27.7902L111.801 38.2261L110.02 38.2877L109.936 35.8563L109.826 35.8601C109.628 36.3211 109.327 36.7723 108.921 37.2138C108.516 37.6552 108.001 38.0236 107.377 38.3191C106.752 38.6145 106.013 38.7769 105.16 38.8065ZM105.343 37.1673C106.291 37.1345 107.104 36.896 107.783 36.4517C108.462 36.0075 108.976 35.432 109.326 34.7254C109.682 34.0118 109.845 33.2348 109.816 32.3944L109.739 30.1731C109.61 30.3045 109.391 30.4256 109.081 30.5365C108.778 30.6472 108.424 30.7496 108.02 30.8437C107.622 30.9309 107.224 31.0081 106.826 31.0753C106.427 31.1426 106.069 31.2017 105.75 31.2528C104.886 31.3895 104.152 31.5819 103.546 31.83C102.94 32.078 102.481 32.4078 102.168 32.8193C101.854 33.2242 101.708 33.7368 101.73 34.3571C101.762 35.291 102.121 36.0032 102.806 36.4937C103.49 36.9776 104.336 37.2021 105.343 37.1673Z" stroke="white" stroke-width="0.105023"></path><path d="M116.55 32.2515L116.45 29.9209L116.85 29.907L123.804 22.4237L126.055 22.3458L119.187 29.716L119.028 29.7515L116.55 32.2515ZM115.13 38.1109L114.421 17.6193L116.202 17.5577L116.911 38.0493L115.13 38.1109ZM124.706 37.7796L118.189 30.1011L119.427 28.8261L126.987 37.7006L124.706 37.7796Z" stroke="white" stroke-width="0.105023"></path><path d="M134.116 37.7745C132.682 37.8241 131.43 37.5335 130.36 36.9027C129.289 36.2652 128.447 35.3627 127.832 34.1953C127.223 33.0209 126.892 31.6566 126.839 30.1024C126.785 28.5548 127.021 27.1709 127.547 25.9506C128.078 24.7234 128.836 23.7522 129.82 23.0369C130.81 22.3148 131.969 21.9308 133.296 21.8848C134.13 21.856 134.939 21.9816 135.723 22.2617C136.508 22.5351 137.217 22.9746 137.853 23.5804C138.495 24.1793 139.012 24.9461 139.405 25.8809C139.798 26.8089 140.016 27.9167 140.061 29.2041L140.091 30.0846L128.085 30.5L128.03 28.9291L138.216 28.5767C138.182 27.5895 137.951 26.7092 137.524 25.936C137.103 25.1558 136.531 24.5478 135.808 24.112C135.091 23.676 134.273 23.4739 133.352 23.5058C132.378 23.5395 131.53 23.8293 130.808 24.3752C130.085 24.9211 129.529 25.6282 129.138 26.4966C128.754 27.3647 128.576 28.3058 128.605 29.32L128.637 30.2605C128.68 31.4812 128.927 32.5412 129.378 33.4405C129.837 34.3329 130.465 35.0158 131.263 35.489C132.06 35.9623 132.993 36.1805 134.06 36.1436C134.787 36.1184 135.42 35.983 135.959 35.7372C136.505 35.4913 136.958 35.1717 137.319 34.7786C137.685 34.3786 137.958 33.9451 138.135 33.4781L139.845 33.9699C139.634 34.625 139.271 35.2353 138.756 35.8007C138.248 36.3659 137.603 36.829 136.821 37.19C136.045 37.5441 135.144 37.7389 134.116 37.7745Z" stroke="white" stroke-width="0.105023"></path><path d="M19.4163 20.9066L20.1253 41.3982L18.3443 41.4599L17.6353 20.9683L19.4163 20.9066Z" fill="white"></path><path d="M29.6538 41.3891C28.2196 41.4387 26.9674 41.1481 25.897 40.5173C24.8265 39.8798 23.9838 38.9774 23.3691 37.8099C22.7608 36.6355 22.4297 35.2712 22.376 33.717C22.3224 32.1694 22.5584 30.7855 23.0838 29.5652C23.6157 28.338 24.3735 27.3668 25.3572 26.6515C26.3473 25.9294 27.5061 25.5454 28.8335 25.4994C29.6673 25.4706 30.4764 25.5962 31.2608 25.8763C32.0449 26.1497 32.7547 26.5893 33.3901 27.195C34.0319 27.7939 34.5493 28.5607 34.9423 29.4955C35.335 30.4235 35.5537 31.5313 35.5982 32.8187L35.6287 33.6992L23.6219 34.1146L23.5675 32.5437L33.7533 32.1913C33.7191 31.2041 33.4883 30.3238 33.0609 29.5506C32.6398 28.7704 32.0678 28.1624 31.3448 27.7266C30.6285 27.2906 29.8101 27.0885 28.8896 27.1204C27.9157 27.1541 27.0675 27.4439 26.3451 27.9898C25.6227 28.5357 25.0661 29.2428 24.6755 30.1112C24.2914 30.9793 24.1136 31.9204 24.142 32.9346L24.1746 33.8751C24.2168 35.0958 24.4639 36.1558 24.9157 37.0551C25.374 37.9475 26.002 38.6304 26.7998 39.1036C27.5976 39.5769 28.5301 39.7951 29.5973 39.7582C30.3244 39.733 30.9575 39.5976 31.4966 39.3518C32.0424 39.1059 32.4955 38.7864 32.8559 38.3932C33.2228 37.9932 33.4949 37.5597 33.6724 37.0927L35.3824 37.5845C35.1714 38.2396 34.8085 38.8499 34.2938 39.4153C33.7857 39.9806 33.1406 40.4437 32.3583 40.8046C31.5825 41.1587 30.681 41.3535 29.6538 41.3891Z" fill="white"></path><path d="M43.9138 25.188L43.9674 26.7389L36.6333 26.9927L36.5796 25.4418L43.9138 25.188ZM38.7435 21.6804L40.5345 21.6184L41.0549 36.657C41.0771 37.2973 41.2045 37.7971 41.4374 38.1564C41.6699 38.509 41.9657 38.7559 42.3245 38.897C42.6831 39.0316 43.0625 39.0919 43.4628 39.078C43.6962 39.07 43.8959 39.0497 44.0617 39.0173C44.2273 38.9781 44.3729 38.9397 44.4985 38.902L44.9345 40.4997C44.7633 40.5724 44.552 40.6398 44.3003 40.702C44.0489 40.7708 43.7365 40.8116 43.3629 40.8246C42.7092 40.8472 42.0739 40.7256 41.457 40.4598C40.8467 40.1937 40.3383 39.7839 39.9318 39.2303C39.5253 38.6767 39.3075 37.9796 39.2784 37.1392L38.7435 21.6804Z" fill="white"></path><path d="M56.7171 28.1209L55.1021 28.6376C54.9261 28.1829 54.6849 27.7739 54.3785 27.4105C54.0721 27.0471 53.6782 26.7635 53.197 26.5598C52.7225 26.3558 52.1383 26.2658 51.4446 26.2898C50.404 26.3258 49.5587 26.6022 48.9088 27.1189C48.2588 27.6356 47.9473 28.2841 47.9743 29.0646C47.9972 29.725 48.2426 30.2541 48.7105 30.652C49.1848 31.0429 49.9031 31.342 50.8652 31.5491L53.2063 32.0391C54.5045 32.3081 55.4856 32.7717 56.1495 33.4299C56.8201 34.0879 57.1731 34.9305 57.2087 35.9578C57.2387 36.8249 57.0252 37.6037 56.5683 38.294C56.1113 38.9843 55.4593 39.5378 54.6122 39.9545C53.7715 40.3642 52.7875 40.5886 51.6602 40.6276C50.1594 40.6796 48.9103 40.3855 47.9132 39.7455C46.9157 39.0988 46.2581 38.1398 45.9403 36.8686L47.6367 36.3891C47.8885 37.2954 48.3426 37.9709 48.9991 38.4157C49.6623 38.8602 50.5209 39.0642 51.5748 39.0278C52.7555 38.9869 53.6902 38.6908 54.3791 38.1393C55.0677 37.5812 55.3981 36.902 55.3704 36.1015C55.3489 35.4812 55.1242 34.968 54.6961 34.5621C54.2677 34.1495 53.6298 33.8577 52.7824 33.6866L50.2503 33.1732C48.9051 32.8992 47.9003 32.4264 47.236 31.7548C46.5716 31.0833 46.2216 30.2338 46.1861 29.2066C46.1568 28.3595 46.3612 27.6077 46.7993 26.9514C47.2371 26.2885 47.8533 25.7596 48.6477 25.3648C49.4422 24.97 50.3563 24.7547 51.3902 24.7189C52.7977 24.6702 53.9328 24.9515 54.7954 25.5628C55.6645 26.1672 56.305 27.0199 56.7171 28.1209Z" fill="white"></path><path d="M19.4163 20.9066L20.1253 41.3982L18.3443 41.4599L17.6353 20.9683L19.4163 20.9066Z" stroke="white" stroke-width="0.105023"></path><path d="M29.6538 41.3891C28.2196 41.4387 26.9674 41.1481 25.897 40.5173C24.8265 39.8798 23.9838 38.9774 23.3691 37.8099C22.7608 36.6355 22.4297 35.2712 22.376 33.717C22.3224 32.1694 22.5584 30.7855 23.0838 29.5652C23.6157 28.338 24.3735 27.3668 25.3572 26.6515C26.3473 25.9294 27.5061 25.5454 28.8335 25.4994C29.6673 25.4706 30.4764 25.5962 31.2608 25.8763C32.0449 26.1497 32.7547 26.5893 33.3901 27.195C34.0319 27.7939 34.5493 28.5607 34.9423 29.4955C35.335 30.4235 35.5537 31.5313 35.5982 32.8187L35.6287 33.6992L23.6219 34.1146L23.5675 32.5437L33.7533 32.1913C33.7191 31.2041 33.4883 30.3238 33.0609 29.5506C32.6398 28.7704 32.0678 28.1624 31.3448 27.7266C30.6285 27.2906 29.8101 27.0885 28.8896 27.1204C27.9157 27.1541 27.0675 27.4439 26.3451 27.9898C25.6227 28.5357 25.0661 29.2428 24.6755 30.1112C24.2914 30.9793 24.1136 31.9204 24.142 32.9346L24.1746 33.8751C24.2168 35.0958 24.4639 36.1558 24.9157 37.0551C25.374 37.9475 26.002 38.6304 26.7998 39.1036C27.5976 39.5769 28.5301 39.7951 29.5973 39.7582C30.3244 39.733 30.9575 39.5976 31.4966 39.3518C32.0424 39.1059 32.4955 38.7864 32.8559 38.3932C33.2228 37.9932 33.4949 37.5597 33.6724 37.0927L35.3824 37.5845C35.1714 38.2396 34.8085 38.8499 34.2938 39.4153C33.7857 39.9806 33.1406 40.4437 32.3583 40.8046C31.5825 41.1587 30.681 41.3535 29.6538 41.3891Z" stroke="white" stroke-width="0.105023"></path><path d="M43.9138 25.188L43.9674 26.7389L36.6333 26.9927L36.5796 25.4418L43.9138 25.188ZM38.7435 21.6804L40.5345 21.6184L41.0549 36.657C41.0771 37.2973 41.2045 37.7971 41.4374 38.1564C41.6699 38.509 41.9657 38.7559 42.3245 38.897C42.6831 39.0316 43.0625 39.0919 43.4628 39.078C43.6962 39.07 43.8959 39.0497 44.0617 39.0173C44.2273 38.9781 44.3729 38.9397 44.4985 38.902L44.9345 40.4997C44.7633 40.5724 44.552 40.6398 44.3003 40.702C44.0489 40.7708 43.7365 40.8116 43.3629 40.8246C42.7092 40.8472 42.0739 40.7256 41.457 40.4598C40.8467 40.1937 40.3383 39.7839 39.9318 39.2303C39.5253 38.6767 39.3075 37.9796 39.2784 37.1392L38.7435 21.6804Z" stroke="white" stroke-width="0.105023"></path><path d="M56.7171 28.1209L55.1021 28.6376C54.9261 28.1829 54.6849 27.7739 54.3785 27.4105C54.0721 27.0471 53.6782 26.7635 53.197 26.5598C52.7225 26.3558 52.1383 26.2658 51.4446 26.2898C50.404 26.3258 49.5587 26.6022 48.9088 27.1189C48.2588 27.6356 47.9473 28.2841 47.9743 29.0646C47.9972 29.725 48.2426 30.2541 48.7105 30.652C49.1848 31.0429 49.9031 31.342 50.8652 31.5491L53.2063 32.0391C54.5045 32.3081 55.4856 32.7717 56.1495 33.4299C56.8201 34.0879 57.1731 34.9305 57.2087 35.9578C57.2387 36.8249 57.0252 37.6037 56.5683 38.294C56.1113 38.9843 55.4593 39.5378 54.6122 39.9545C53.7715 40.3642 52.7875 40.5886 51.6602 40.6276C50.1594 40.6796 48.9103 40.3855 47.9132 39.7455C46.9157 39.0988 46.2581 38.1398 45.9403 36.8686L47.6367 36.3891C47.8885 37.2954 48.3426 37.9709 48.9991 38.4157C49.6623 38.8602 50.5209 39.0642 51.5748 39.0278C52.7555 38.9869 53.6902 38.6908 54.3791 38.1393C55.0677 37.5812 55.3981 36.902 55.3704 36.1015C55.3489 35.4812 55.1242 34.968 54.6961 34.5621C54.2677 34.1495 53.6298 33.8577 52.7824 33.6866L50.2503 33.1732C48.9051 32.8992 47.9003 32.4264 47.236 31.7548C46.5716 31.0833 46.2216 30.2338 46.1861 29.2066C46.1568 28.3595 46.3612 27.6077 46.7993 26.9514C47.2371 26.2885 47.8533 25.7596 48.6477 25.3648C49.4422 24.97 50.3563 24.7547 51.3902 24.7189C52.7977 24.6702 53.9328 24.9515 54.7954 25.5628C55.6645 26.1672 56.305 27.0199 56.7171 28.1209Z" stroke="white" stroke-width="0.105023"></path><path d="M157.273 24.6413L155.658 25.158C155.482 24.7033 155.241 24.2942 154.935 23.9308C154.628 23.5674 154.234 23.2839 153.753 23.0801C153.279 22.8762 152.694 22.7862 152.001 22.8102C150.96 22.8462 150.115 23.1225 149.465 23.6392C148.815 24.1559 148.503 24.8045 148.53 25.5849C148.553 26.2453 148.799 26.7744 149.267 27.1723C149.741 27.5633 150.459 27.8623 151.421 28.0695L153.762 28.5595C155.061 28.8284 156.042 29.292 156.706 29.9502C157.376 30.6082 157.729 31.4509 157.765 32.4781C157.795 33.3453 157.581 34.124 157.124 34.8143C156.667 35.5047 156.015 36.0582 155.168 36.4748C154.328 36.8846 153.344 37.109 152.216 37.148C150.715 37.1999 149.466 36.9059 148.469 36.2659C147.472 35.6192 146.814 34.6602 146.496 33.3889L148.193 32.9095C148.445 33.8157 148.899 34.4912 149.555 34.936C150.218 35.3805 151.077 35.5846 152.131 35.5481C153.312 35.5073 154.246 35.2111 154.935 34.6597C155.624 34.1016 155.954 33.4223 155.927 32.6219C155.905 32.0015 155.68 31.4884 155.252 31.0824C154.824 30.6698 154.186 30.378 153.339 30.207L150.806 29.6936C149.461 29.4195 148.456 28.9467 147.792 28.2752C147.128 27.6036 146.778 26.7542 146.742 25.727C146.713 24.8798 146.917 24.1281 147.355 23.4718C147.793 22.8088 148.409 22.28 149.204 21.8852C149.998 21.4904 150.912 21.2751 151.946 21.2393C153.354 21.1906 154.489 21.4719 155.351 22.0832C156.221 22.6875 156.861 23.5403 157.273 24.6413Z" fill="white"></path><path d="M160.419 36.5436L159.888 21.1749L161.679 21.1129L162.21 36.4816L160.419 36.5436Z" fill="white"></path><path d="M171.033 20.7892L171.087 22.3401L163.753 22.5939L163.699 21.043L171.033 20.7892ZM165.863 17.2816L167.654 17.2197L168.175 32.2582C168.197 32.8985 168.324 33.3983 168.557 33.7576C168.79 34.1102 169.085 34.3571 169.444 34.4983C169.803 34.6328 170.182 34.6931 170.582 34.6793C170.816 34.6712 171.015 34.6509 171.181 34.6185C171.347 34.5793 171.493 34.5409 171.618 34.5032L172.054 36.1009C171.883 36.1736 171.672 36.2411 171.42 36.3032C171.169 36.372 170.856 36.4129 170.483 36.4258C169.829 36.4484 169.194 36.3268 168.577 36.061C167.966 35.7949 167.458 35.3851 167.051 34.8315C166.645 34.2779 166.427 33.5809 166.398 32.7404L165.863 17.2816Z" fill="white"></path><path d="M180.261 36.1776C178.827 36.2272 177.574 35.9366 176.504 35.3058C175.433 34.6683 174.591 33.7659 173.976 32.5984C173.368 31.424 173.037 30.0597 172.983 28.5055C172.929 26.9579 173.165 25.574 173.691 24.3537C174.223 23.1265 174.98 22.1553 175.964 21.4401C176.954 20.7179 178.113 20.3339 179.44 20.288C180.274 20.2591 181.083 20.3847 181.868 20.6648C182.652 20.9382 183.362 21.3778 183.997 21.9836C184.639 22.5824 185.156 23.3493 185.549 24.284C185.942 25.2121 186.161 26.3198 186.205 27.6072L186.236 28.4877L174.229 28.9031L174.174 27.3323L184.36 26.9798C184.326 25.9926 184.095 25.1123 183.668 24.3391C183.247 23.5589 182.675 22.9509 181.952 22.5151C181.235 22.0791 180.417 21.877 179.496 21.9089C178.523 21.9426 177.674 22.2324 176.952 22.7783C176.23 23.3242 175.673 24.0313 175.282 24.8997C174.898 25.7678 174.721 26.709 174.749 27.7231L174.781 28.6636C174.824 29.8843 175.071 30.9443 175.523 31.8436C175.981 32.736 176.609 33.4189 177.407 33.8922C178.204 34.3654 179.137 34.5836 180.204 34.5467C180.931 34.5215 181.564 34.3861 182.104 34.1404C182.649 33.8944 183.102 33.5749 183.463 33.1817C183.83 32.7817 184.102 32.3482 184.279 31.8812L185.989 32.373C185.778 33.0281 185.415 33.6384 184.901 34.2039C184.393 34.7691 183.747 35.2322 182.965 35.5932C182.189 35.9472 181.288 36.1421 180.261 36.1776Z" fill="white"></path><path d="M157.273 24.6413L155.658 25.158C155.482 24.7033 155.241 24.2942 154.935 23.9308C154.628 23.5674 154.234 23.2839 153.753 23.0801C153.279 22.8762 152.694 22.7862 152.001 22.8102C150.96 22.8462 150.115 23.1225 149.465 23.6392C148.815 24.1559 148.503 24.8045 148.53 25.5849C148.553 26.2453 148.799 26.7744 149.267 27.1723C149.741 27.5633 150.459 27.8623 151.421 28.0695L153.762 28.5595C155.061 28.8284 156.042 29.292 156.706 29.9502C157.376 30.6082 157.729 31.4509 157.765 32.4781C157.795 33.3453 157.581 34.124 157.124 34.8143C156.667 35.5047 156.015 36.0582 155.168 36.4748C154.328 36.8846 153.344 37.109 152.216 37.148C150.715 37.1999 149.466 36.9059 148.469 36.2659C147.472 35.6192 146.814 34.6602 146.496 33.3889L148.193 32.9095C148.445 33.8157 148.899 34.4912 149.555 34.936C150.218 35.3805 151.077 35.5846 152.131 35.5481C153.312 35.5073 154.246 35.2111 154.935 34.6597C155.624 34.1016 155.954 33.4223 155.927 32.6219C155.905 32.0015 155.68 31.4884 155.252 31.0824C154.824 30.6698 154.186 30.378 153.339 30.207L150.806 29.6936C149.461 29.4195 148.456 28.9467 147.792 28.2752C147.128 27.6036 146.778 26.7542 146.742 25.727C146.713 24.8798 146.917 24.1281 147.355 23.4718C147.793 22.8088 148.409 22.28 149.204 21.8852C149.998 21.4904 150.912 21.2751 151.946 21.2393C153.354 21.1906 154.489 21.4719 155.351 22.0832C156.221 22.6875 156.861 23.5403 157.273 24.6413Z" stroke="white" stroke-width="0.105023"></path><path d="M160.419 36.5436L159.888 21.1749L161.679 21.1129L162.21 36.4816L160.419 36.5436Z" stroke="white" stroke-width="0.105023"></path><path d="M171.033 20.7892L171.087 22.3401L163.753 22.5939L163.699 21.043L171.033 20.7892ZM165.863 17.2816L167.654 17.2197L168.175 32.2582C168.197 32.8985 168.324 33.3983 168.557 33.7576C168.79 34.1102 169.085 34.3571 169.444 34.4983C169.803 34.6328 170.182 34.6931 170.582 34.6793C170.816 34.6712 171.015 34.6509 171.181 34.6185C171.347 34.5793 171.493 34.5409 171.618 34.5032L172.054 36.1009C171.883 36.1736 171.672 36.2411 171.42 36.3032C171.169 36.372 170.856 36.4129 170.483 36.4258C169.829 36.4484 169.194 36.3268 168.577 36.061C167.966 35.7949 167.458 35.3851 167.051 34.8315C166.645 34.2779 166.427 33.5809 166.398 32.7404L165.863 17.2816Z" stroke="white" stroke-width="0.105023"></path><path d="M180.261 36.1776C178.827 36.2272 177.574 35.9366 176.504 35.3058C175.433 34.6683 174.591 33.7659 173.976 32.5984C173.368 31.424 173.037 30.0597 172.983 28.5055C172.929 26.9579 173.165 25.574 173.691 24.3537C174.223 23.1265 174.98 22.1553 175.964 21.4401C176.954 20.7179 178.113 20.3339 179.44 20.288C180.274 20.2591 181.083 20.3847 181.868 20.6648C182.652 20.9382 183.362 21.3778 183.997 21.9836C184.639 22.5824 185.156 23.3493 185.549 24.284C185.942 25.2121 186.161 26.3198 186.205 27.6072L186.236 28.4877L174.229 28.9031L174.174 27.3323L184.36 26.9798C184.326 25.9926 184.095 25.1123 183.668 24.3391C183.247 23.5589 182.675 22.9509 181.952 22.5151C181.235 22.0791 180.417 21.877 179.496 21.9089C178.523 21.9426 177.674 22.2324 176.952 22.7783C176.23 23.3242 175.673 24.0313 175.282 24.8997C174.898 25.7678 174.721 26.709 174.749 27.7231L174.781 28.6636C174.824 29.8843 175.071 30.9443 175.523 31.8436C175.981 32.736 176.609 33.4189 177.407 33.8922C178.204 34.3654 179.137 34.5836 180.204 34.5467C180.931 34.5215 181.564 34.3861 182.104 34.1404C182.649 33.8944 183.102 33.5749 183.463 33.1817C183.83 32.7817 184.102 32.3482 184.279 31.8812L185.989 32.373C185.778 33.0281 185.415 33.6384 184.901 34.2039C184.393 34.7691 183.747 35.2322 182.965 35.5932C182.189 35.9472 181.288 36.1421 180.261 36.1776Z" stroke="white" stroke-width="0.105023"></path><path d="M162.632 15.592L161.744 19.0336L159.932 19.0963L160.909 15.6516L162.632 15.592Z" fill="white" stroke="white" stroke-width="0.105023"></path><path d="M143.061 37.2888C142.683 37.3019 142.352 37.1787 142.067 36.9193C141.789 36.6532 141.643 36.3313 141.63 35.9535C141.617 35.5693 141.74 35.238 141.999 34.9598C142.265 34.6813 142.587 34.5355 142.965 34.5225C143.349 34.5092 143.681 34.6323 143.959 34.892C144.237 35.1516 144.383 35.4736 144.396 35.8578C144.405 36.1075 144.349 36.3403 144.228 36.556C144.114 36.7715 143.953 36.947 143.746 37.0824C143.546 37.2111 143.317 37.28 143.061 37.2888Z" fill="white"></path><g clip-path="url(#clip0_1419_18885)"><path d="M62.5865 29.6471C63.0722 31.1824 64.0072 31.9314 64.9787 31.6776C65.9501 31.4238 66.4966 30.0186 66.193 28.5824C65.9623 27.4619 65.5858 26.3724 65.3733 25.2519C64.8269 22.3857 66.7941 18.3433 69.508 17C68.1905 20.3552 69.593 22.819 71.6755 25.1219C73.3998 27.0224 75.0512 29.0219 75.5673 31.7024C76.7816 37.8929 72.0762 41.8238 67.0673 41.0438C66.5148 40.9658 65.9689 40.8458 65.434 40.6848C61.099 39.2981 59.0469 35.1133 60.4251 30.2971C60.7955 29.0157 61.4026 27.821 61.8701 26.5829C62.1069 27.5919 62.2708 28.6443 62.5865 29.6471ZM61.5969 30.9162C61.1623 32.1992 61.1137 33.5853 61.4572 34.8967C62.2708 38.3014 65.9441 40.5114 69.4412 39.7562C72.6469 39.069 74.4258 36.9519 74.5351 33.6462C74.6019 31.591 73.7519 29.8824 72.6226 28.279C70.9166 25.84 68.3726 23.989 67.7655 20.4481C67.4671 20.9124 67.1954 21.394 66.9519 21.8905C66.4278 23.2598 66.3891 24.7728 66.8426 26.1681C67.179 27.2205 67.3949 28.3089 67.4862 29.4119C67.5604 30.1221 67.4124 30.8381 67.0634 31.4574C66.7145 32.0767 66.1824 32.5676 65.5433 32.86C64.2805 33.3367 63.1147 32.86 62.0219 31.4238C61.9187 31.2938 61.7912 31.17 61.5969 30.9162Z" fill="#EC6A33"></path></g><defs><clipPath id="clip0_1419_18885"><rect width="17" height="26" fill="white" transform="translate(59 16)"></rect></clipPath></defs></svg> 