<svg
  xmlns="http://www.w3.org/2000/svg"
  width="11.019"
  height="94.451"
  viewBox="0 0 11.019 94.451"
>
  <g
    fill="#ffb380"
    fill-rule="evenodd"
    stroke="#000"
    stroke-linecap="round"
    stroke-linejoin="round"
  >
    <g fill="#c87137" transform="rotate(-90 285.398 318.66)">
      <path
        stroke-width=".338"
        d="M510.05 39.71h83.873c.132 0 .239.082.239.185v1.99c0 .102-.107.185-.24.185h-82.661c-.132 0-.184-.096-.24-.186l-1.21-1.99c-.054-.089.107-.185.24-.185z"
      />
      <rect
        width="89.633"
        height="3.77"
        x="509.78"
        y="35.939"
        stroke-width=".348"
        rx=".186"
        ry=".186"
      />
    </g>
    <g fill="#d40000">
      <path
        stroke-width=".331"
        d="M5.51.165c2.951 0 5.344.613 5.344 6.26 0 5.646-2.393 10.223-5.344 10.223-2.952 0-5.345-4.577-5.345-10.224C.165.778 2.558.165 5.51.165z"
      />
      <path
        stroke-width=".231"
        d="M7.881 4.664c.693 3.761.217 7.24-1.064 9.258"
      />
    </g>
  </g>
</svg>
