<?xml version="1.0" encoding="UTF-8"?> <svg xmlns="http://www.w3.org/2000/svg" width="21" height="21" viewBox="0 0 21 21" fill="none"><g clip-path="url(#clip0_1419_18852)"><path d="M15.3154 0H5.68451C2.55002 0 0 2.55002 0 5.68451V15.3156C0 18.4499 2.55002 21 5.68451 21H15.3156C18.4499 21 21 18.4499 21 15.3156V5.68451C21 2.55002 18.4499 0 15.3154 0ZM19.7688 15.3156C19.7688 17.7711 17.7711 19.7688 15.3154 19.7688H5.68451C3.22887 19.7688 1.23112 17.7711 1.23112 15.3156V5.68451C1.23112 3.22887 3.22887 1.23112 5.68451 1.23112H15.3156C17.7711 1.23112 19.7688 3.22887 19.7688 5.68451V15.3156Z" fill="#181818"></path><path d="M10.4998 4.75801C7.33363 4.75801 4.75781 7.33379 4.75781 10.5C4.75781 13.6663 7.33359 16.2421 10.4998 16.2421C13.6661 16.2421 16.2419 13.6663 16.2419 10.5C16.2419 7.33379 13.6661 4.75801 10.4998 4.75801ZM10.4998 15.0109C8.01265 15.0109 5.98894 12.9874 5.98894 10.5C5.98894 8.01284 8.01265 5.98913 10.4998 5.98913C12.9872 5.98913 15.0107 8.01284 15.0107 10.5C15.0107 12.9874 12.9872 15.0109 10.4998 15.0109ZM16.3792 2.71875C15.4435 2.71875 14.6825 3.47996 14.6825 4.41544C14.6825 5.35113 15.4435 6.1123 16.3792 6.1123C17.3149 6.1123 18.076 5.35113 18.076 4.41548C18.076 3.47984 17.3148 2.71875 16.3792 2.71875ZM16.3792 4.88105C16.1225 4.88105 15.9136 4.67212 15.9136 4.41544C15.9136 4.15864 16.1225 3.94987 16.3792 3.94987C16.636 3.94987 16.8449 4.15864 16.8449 4.41544C16.8449 4.67212 16.636 4.88105 16.3792 4.88105Z" fill="#181818"></path></g><defs><clipPath id="clip0_1419_18852"><rect width="21" height="21" fill="white"></rect></clipPath></defs></svg> 