<?xml version="1.0" encoding="UTF-8"?> <svg xmlns="http://www.w3.org/2000/svg" width="40" height="34" viewBox="0 0 40 34" fill="none"><path d="M17.7707 24.1293C16.6764 23.2861 15.7342 22.56 15.0792 22.0634C19.6386 18.0922 24.1981 14.1206 28.7546 10.1447L28.1638 9.34211L10.6655 20.11C9.79745 19.8269 8.92952 19.5444 8.0618 19.2619C6.10718 18.6257 4.15361 17.9899 2.2017 17.3482L2.20172 17.3481L2.19407 17.3457C1.04858 16.9894 0.526434 16.2403 0.501025 15.579C0.476209 14.9331 0.919863 14.1305 2.22749 13.6505L2.2275 13.6506L2.2329 13.6485L35.8335 0.873189L35.8336 0.873364L35.8462 0.868158C35.9894 0.809191 36.923 0.465905 37.7872 0.502732C38.213 0.520872 38.5584 0.628725 38.7945 0.842272C39.0128 1.03977 39.2101 1.39381 39.2192 2.06792L33.1808 31.4742C33.1149 31.6131 32.8521 32.1194 32.3502 32.5168C32.0581 32.7481 31.6897 32.9388 31.23 33.0046C30.7712 33.0702 30.1888 33.016 29.4605 32.7082C29.2908 32.6362 28.967 32.4468 28.4969 32.1371C28.038 31.8348 27.4694 31.438 26.8235 30.9735C25.5322 30.0448 23.9451 28.8548 22.3335 27.6293C20.7511 26.426 19.1416 25.1857 17.7707 24.1293ZM38.3 2.07684L38.3219 1.96975L38.2971 1.86329C38.2497 1.65941 38.1207 1.51051 37.965 1.423C37.8266 1.34521 37.6816 1.32275 37.5733 1.31654C37.357 1.30414 37.1218 1.34917 36.9365 1.39548C36.6183 1.47499 36.3092 1.59499 36.1994 1.64062L2.5306 14.4362C2.24789 14.5281 1.99716 14.6403 1.80521 14.7808C1.61963 14.9167 1.40522 15.1436 1.39435 15.4722C1.38329 15.8066 1.58868 16.0462 1.77274 16.1908C1.96346 16.3405 2.21718 16.4604 2.5043 16.5595L2.50427 16.5596L2.51241 16.5622L10.3176 19.1089L10.5376 19.1806L10.7347 19.0594L31.7357 6.13976C32.0504 5.95452 32.4233 5.81065 32.7601 5.78247C33.0859 5.75521 33.3332 5.83544 33.5117 6.04299C33.6914 6.25266 33.7129 6.47009 33.6279 6.72345C33.5345 7.00193 33.3134 7.29784 33.0452 7.54065C32.444 8.08451 20.5656 18.434 16.9279 21.6026L16.4592 22.0109L16.9584 22.3812L29.8247 31.9244L29.8813 31.9663L29.9472 31.991C30.639 32.2502 31.2016 32.1706 31.622 31.9322C32.0184 31.7074 32.2303 31.3746 32.3146 31.2175L32.3493 31.153L32.3639 31.0813L38.3 2.07684Z" fill="white" stroke="white"></path></svg> 