<?xml version="1.0" encoding="UTF-8"?> <svg xmlns="http://www.w3.org/2000/svg" width="23" height="23" viewBox="0 0 23 23" fill="none"><g clip-path="url(#clip0_1419_18858)"><path d="M15.0403 10.6814L9.95898 7.90123C9.66681 7.74135 9.3215 7.74733 9.03512 7.917C8.74856 8.08685 8.57764 8.38693 8.57764 8.71998V14.2327C8.57764 14.5642 8.74753 14.8638 9.03216 15.0338C9.18076 15.1226 9.34553 15.1672 9.51066 15.1672C9.66517 15.1669 9.8172 15.1283 9.95305 15.0547L15.0345 12.3224C15.1825 12.2428 15.3063 12.1247 15.3928 11.9806C15.4792 11.8366 15.5252 11.6718 15.5258 11.5037C15.5265 11.3356 15.4817 11.1705 15.3963 11.0257C15.3108 10.881 15.1878 10.762 15.0403 10.6814ZM9.92547 13.5392V9.4191L13.7232 11.497L9.92547 13.5392Z" fill="#181818"></path><path d="M22.8307 7.11179L22.8297 7.10128C22.8102 6.91616 22.6163 5.26951 21.8158 4.43194C20.8905 3.44681 19.8415 3.32714 19.337 3.26977C19.2989 3.26557 19.2608 3.261 19.2228 3.25607L19.1826 3.2519C16.142 3.03079 11.55 3.0006 11.504 3.00042L11.5 3.00024L11.4959 3.00042C11.45 3.0006 6.85793 3.03079 3.78991 3.2519L3.74939 3.25607C3.71673 3.26048 3.68075 3.26452 3.64162 3.2691C3.14295 3.3266 2.10517 3.4465 1.17726 4.46721C0.414807 5.29583 0.194421 6.90722 0.171781 7.0883L0.169175 7.11179C0.162302 7.18883 0 9.02276 0 10.8638V12.5849C0 14.426 0.162302 16.2599 0.169175 16.3371L0.170388 16.3486C0.189884 16.5308 0.383586 18.1473 1.18041 18.9852C2.05045 19.9373 3.15049 20.0633 3.7422 20.131C3.83573 20.1417 3.91627 20.1509 3.97117 20.1605L4.02436 20.1679C5.77999 20.3349 11.2845 20.4172 11.5178 20.4206L11.5249 20.4207L11.5319 20.4206C11.5778 20.4204 16.1697 20.3902 19.2104 20.1691L19.2505 20.1649C19.289 20.1598 19.3321 20.1553 19.3795 20.1503C19.8754 20.0977 20.9075 19.9884 21.8226 18.9815C22.5851 18.1527 22.8057 16.5413 22.8281 16.3604L22.8307 16.3369C22.8376 16.2597 23.0001 14.4259 23.0001 12.5849V10.8638C22.9999 9.02272 22.8376 7.18901 22.8307 7.11179ZM21.6521 12.5849C21.6521 14.2889 21.5033 16.0438 21.4892 16.2049C21.4321 16.6488 21.1995 17.6682 20.828 18.072C20.2553 18.7021 19.6669 18.7646 19.2374 18.8101C19.1895 18.815 19.1416 18.8204 19.0938 18.8262C16.1529 19.0389 11.7342 19.0715 11.5307 19.0727C11.3024 19.0694 5.87841 18.9864 4.17633 18.8283C4.08909 18.8141 3.99484 18.8032 3.89557 18.792C3.39177 18.7342 2.70213 18.6553 2.17187 18.072L2.15939 18.0587C1.7944 17.6784 1.56858 16.725 1.51117 16.2102C1.50047 16.0885 1.34783 14.3128 1.34783 12.5849V10.8638C1.34783 9.16175 1.4963 7.40872 1.51067 7.24431C1.57895 6.72156 1.81582 5.76383 2.17187 5.37669C2.76215 4.72744 3.38458 4.65552 3.79624 4.60795C3.83555 4.60336 3.87221 4.59919 3.90608 4.59478C6.88987 4.38105 11.3403 4.34929 11.5 4.34807C11.6597 4.34911 16.1085 4.38105 19.0658 4.59478C19.1021 4.59937 19.1417 4.6039 19.1844 4.60885C19.6078 4.65709 20.2477 4.73009 20.8351 5.35652L20.8405 5.36232C21.2055 5.74258 21.4313 6.71262 21.4887 7.2378C21.4989 7.35275 21.6521 9.13224 21.6521 10.8638V12.5849Z" fill="#181818"></path></g><defs><clipPath id="clip0_1419_18858"><rect width="23" height="23" fill="white"></rect></clipPath></defs></svg> 