<?xml version="1.0" encoding="UTF-8"?> <svg xmlns="http://www.w3.org/2000/svg" width="162" height="135" fill="none"><g clip-path="url(#clip0_3_74)"><path d="M14.571 8.85H0V135h152.967v-15.288h8.196V0H14.571v8.85z" fill="#000"></path><path d="M149.776 11.655H3.184v120.54h146.592V11.655z" fill="#EE2C2D"></path><path d="M18.945 40.56v-.59c.465-.119.772-.26.906-.426.142-.165.205-.457.205-.867V18.905c0-.441-.071-.74-.22-.906-.15-.166-.45-.3-.9-.402v-.567h8.89v.567c-.276.047-.489.142-.638.307-.142.158-.221.37-.221.639 0 .134.055.315.173.543.055.103.103.19.134.26l6.281 12.389 6.675-12.389c.118-.204.197-.37.244-.496a1.01 1.01 0 00.063-.363c0-.236-.063-.417-.197-.551-.134-.134-.362-.244-.701-.347v-.567h8.668v.567c-.465.118-.772.26-.906.441-.142.174-.205.465-.205.875v19.772c0 .426.071.725.22.899.143.173.45.307.9.394v.59h-7.093v-.59c.449-.087.748-.221.898-.394.142-.174.22-.473.22-.899v-15.06l-9.086 16.77-8.668-16.77v15.06c0 .45.071.757.205.907.142.15.425.283.867.386v.59h-6.714zm52.05-19.33c.48 0 .788-.063.93-.197.134-.134.26-.41.362-.835h.591v6.02h-.59c-.087-.441-.213-.733-.387-.875-.165-.141-.472-.22-.906-.22H59.151V29h7.265c.466 0 .773-.071.923-.205.141-.142.267-.426.37-.867l.591-.023v5.516h-.591c-.087-.426-.213-.71-.386-.851-.166-.142-.473-.22-.906-.22H59.15v4.357h12.325c.465 0 .772-.063.922-.197.142-.134.276-.425.394-.875h.567v6.045h-.567c-.087-.434-.22-.733-.394-.89-.174-.15-.48-.23-.922-.23h-18.11v-.59c.442-.087.733-.221.891-.395.15-.173.229-.472.229-.898V23.113c0-.425-.08-.725-.229-.898-.15-.174-.45-.307-.89-.394v-.591h17.628zm23.807 12.348V23.153c0-.434-.079-.749-.245-.93-.157-.181-.457-.315-.898-.402v-.591H99.9v.59c-.425.088-.709.221-.85.395-.15.173-.221.488-.221.938v15.524c0 .434.07.74.22.906.142.166.434.3.851.387v.59h-7.029v-.59c.276-.056.497-.15.654-.276.158-.126.237-.252.237-.386a.547.547 0 00-.08-.276 1.088 1.088 0 00-.204-.276l-11.206-11.08V38.67c0 .426.079.725.228.899.15.173.45.307.89.394v.59h-6.217v-.59c.426-.087.71-.213.851-.387.15-.165.221-.472.221-.906V23.113c0-.441-.071-.74-.22-.906-.143-.166-.434-.3-.852-.386v-.591h7.487v.567c-.276.087-.481.181-.615.284a.454.454 0 00-.197.37c0 .071.024.15.063.229.047.079.142.197.284.339l10.607 10.56zm9.771-6.241c1.317-.536 2.373-1.205 3.176-2.001.804-.796 1.206-1.569 1.206-2.31 0-.22-.087-.378-.252-.48-.166-.102-.505-.181-1.017-.244-.819-.087-1.45-.37-1.907-.851-.449-.481-.678-1.127-.678-1.931 0-.82.276-1.505.836-2.073.551-.56 1.229-.843 2.033-.843 1.08 0 1.946.386 2.608 1.15.654.765.985 1.782.985 3.035 0 1.796-.598 3.372-1.781 4.728-1.189 1.355-2.923 2.427-5.201 3.2v-1.38h-.008zm10.198 11.781l2.104-4.79.678.283a.577.577 0 00-.047.134c-.032.134-.04.22-.04.26 0 .48.78 1.009 2.356 1.576a14.03 14.03 0 004.807.851c1.663 0 2.987-.228 3.964-.678.977-.449 1.466-1.048 1.466-1.796 0-1.064-1.647-1.687-4.949-1.86a115.584 115.584 0 01-3.105-.197c-2.277-.205-3.979-.757-5.098-1.663-1.127-.906-1.687-2.175-1.687-3.806 0-1.97.836-3.554 2.514-4.752 1.679-1.198 3.901-1.797 6.675-1.797 1.899 0 3.798.355 5.713 1.072.323.118.512.173.568.173.189 0 .567.15 1.126.45.56.299.993.449 1.301.449.055 0 .149-.032.283-.103a1.62 1.62 0 00.371-.252l.504.22-2.388 4.84-.654-.348c.016-.015.024-.039.032-.063a.711.711 0 00.008-.15c0-.567-.741-1.173-2.231-1.82a11.546 11.546 0 00-4.594-.961c-1.458 0-2.64.197-3.538.599-.899.402-1.348.914-1.348 1.544 0 .978 1.293 1.537 3.877 1.663 1.971.103 3.562.26 4.776.48 2.12.38 3.704 1.049 4.752 2.01 1.048.962 1.576 2.207 1.576 3.72 0 1.939-.914 3.523-2.734 4.752-1.829 1.221-4.193 1.836-7.117 1.836-2.758 0-5.398-.575-7.927-1.726-.481-.22-.773-.33-.875-.33-.15.015-.252.039-.315.086a.576.576 0 00-.166.26l-.638-.166zM9.504 77.693v-.59c.449-.087.748-.221.898-.395.15-.173.22-.472.22-.898V56.046c0-.41-.07-.702-.204-.875-.142-.173-.441-.323-.906-.441v-.568h14.492c3.065 0 5.445.6 7.14 1.797 1.694 1.198 2.537 2.868 2.537 5.012 0 2.19-.812 3.917-2.427 5.185-1.623 1.27-3.83 1.907-6.635 1.907h-8.834v7.747c0 .441.07.733.204.898.142.158.442.292.907.394v.591H9.504zm13.05-19.59h-6.762v5.957h6.943c2.057 0 3.57-.244 4.531-.733.962-.488 1.443-1.26 1.443-2.309 0-1.04-.465-1.78-1.403-2.23-.938-.465-2.522-.685-4.752-.685zm25.399-.182c3.357 0 6.107.954 8.258 2.86 2.152 1.908 3.223 4.32 3.223 7.235 0 2.892-1.08 5.288-3.238 7.203-2.16 1.915-4.91 2.868-8.243 2.868-3.279 0-5.997-.961-8.149-2.876-2.151-1.923-3.223-4.319-3.223-7.195 0-2.892 1.072-5.296 3.215-7.21 2.144-1.923 4.863-2.885 8.157-2.885zm-6.58 10.095c0 1.852.606 3.357 1.828 4.5 1.213 1.142 2.813 1.718 4.799 1.718 1.978 0 3.586-.583 4.807-1.742 1.221-1.158 1.836-2.656 1.836-4.476 0-1.852-.615-3.357-1.844-4.508-1.23-1.15-2.845-1.725-4.838-1.725-1.955 0-3.539.583-4.752 1.741-1.222 1.15-1.837 2.656-1.837 4.492zm40.717-9.653v.59c-.44.15-.74.308-.906.473-.165.166-.252.402-.252.694 0 .087.008.19.032.3.023.11.055.236.102.386L84.7 71.112l3.72-10.307c.055-.134.102-.253.134-.37.031-.12.047-.221.047-.308a.941.941 0 00-.3-.702c-.197-.189-.504-.338-.906-.457v-.59h7.353v.59c-.528.15-.938.363-1.23.654-.291.292-.59.836-.898 1.624l-5.406 14.035a1.14 1.14 0 00-.063.307 2.843 2.843 0 00-.024.37c0 .324.071.552.22.702.143.142.458.3.939.457v.591h-7.44v-.59c.45-.143.75-.293.899-.442.142-.15.22-.386.22-.725 0-.134-.007-.252-.023-.37a2.324 2.324 0 00-.063-.308L77.48 63.367l-4.2 11.907a1.51 1.51 0 00-.064.307 2.824 2.824 0 00-.023.37c0 .34.07.576.22.726.15.142.45.291.899.441v.591h-7.44v-.59c.481-.159.796-.316.938-.474.15-.15.221-.386.221-.693 0-.15-.008-.284-.032-.418a1.846 1.846 0 00-.055-.26L62.43 61.239c-.307-.82-.599-1.363-.89-1.64-.284-.275-.694-.488-1.214-.637v-.592h7.573v.592c-.465.15-.772.283-.906.417-.142.134-.205.308-.205.528 0 .134.016.268.055.418.04.142.095.307.165.48L70.9 71.114l3.72-10.307c.047-.134.079-.253.102-.363.024-.11.032-.213.032-.315 0-.292-.087-.52-.252-.694-.166-.165-.473-.33-.906-.496v-.568h8.495v-.007zm32.988 0c.481 0 .788-.063.93-.197.134-.134.26-.41.363-.836h.591v6.02h-.591c-.087-.44-.213-.732-.387-.874-.165-.142-.472-.22-.906-.22h-11.844v3.877h7.266c.465 0 .772-.071.922-.205.142-.142.268-.426.37-.867l.591-.024v5.517h-.591c-.087-.426-.213-.71-.386-.852-.166-.141-.473-.22-.906-.22h-7.266v4.358h12.325c.465 0 .772-.063.922-.197.142-.134.276-.426.394-.875h.567v6.044h-.567c-.087-.441-.221-.733-.394-.89-.173-.15-.481-.229-.922-.229H97.457v-.59c.442-.087.733-.221.891-.395.15-.173.228-.473.228-.898V60.246c0-.425-.078-.725-.228-.898-.158-.174-.45-.308-.89-.394v-.591h17.62zm11.963 17.447c0 .425.079.725.228.898.15.174.45.308.891.394v.591h-6.856v-.59c.425-.087.709-.213.851-.387.142-.165.221-.473.221-.906V60.246c0-.433-.071-.74-.221-.906-.15-.166-.434-.3-.851-.386v-.591h12.869c2.569 0 4.562.496 5.981 1.481 1.418.985 2.12 2.364 2.12 4.13 0 1.473-.449 2.687-1.356 3.632-.906.946-2.238 1.616-4.003 2.018l3.767 5.256c.307.433.654.82 1.048 1.135.394.323.969.685 1.734 1.095v.591h-8.125v-.567c.323-.055.567-.15.733-.284.165-.134.252-.291.252-.48 0-.048-.055-.19-.173-.442a5.66 5.66 0 00-.371-.654l-3.806-5.453h-4.925v5.989h-.008zm5.39-13.949h-5.382v4.398h5.563c1.71 0 2.971-.181 3.791-.544.819-.362 1.229-.938 1.229-1.71 0-.74-.402-1.284-1.206-1.631-.819-.34-2.143-.513-3.995-.513zm-61.105 42.003c.331.166.985-.409 1.56 0 .576.41 3.53 2.301 3.53 2.301l-10.59-10.59 4.925 7.47s.252.654.575.819zm-.654.166l-4.925-1.97 3.451 2.301 1.474-.331zm1.56-8.621l.906 4.759 1.159.907-.26 1.229 2.876 3.617V88.757l-2.466 11.632-2.215-4.98zm10.426 13.79c-.33-.165-.985.41-1.56 0-.575-.409-3.53-2.301-3.53-2.301l10.59 10.592-4.924-7.471c0 .008-.245-.654-.576-.82zm.662-.157l4.925 1.97-3.451-2.301-1.474.331zm-2.467 3.853l-1.166-.906.26-1.229-2.868-3.61v17.164l2.466-11.631 2.215 4.98-.907-4.768zm-.409-12.656s-.654.245-.82.576c-.165.331.41.985 0 1.56-.41.575-2.309 3.53-2.309 3.53L87.93 95.338l-7.486 4.901zm.993-5.004l-2.301 3.444.323 1.482 1.978-4.926zm1.875 7.392l-.906 1.166-1.23-.268-3.616 2.869 17.155.031-11.623-2.49 4.988-2.198-4.768.89zm-9.929 10.363s.654-.244.82-.575c.165-.331-.41-.985 0-1.561.41-.575 2.308-3.53 2.308-3.53l-10.615 10.567 7.487-4.901zm-1.001 5.004l2.31-3.444-.324-1.473-1.986 4.917zm-1.868-7.392l.906-1.158 1.23.26 3.617-2.869-17.164-.031 11.624 2.49-4.98 2.206 4.767-.898zm5.115-26.321h.48l1.577 2.033v-2.033h.512v2.948h-.434l-1.623-2.097v2.097h-.512V84.28zm-22.097 20.86h.56l.7 2.175.726-2.191h.433l.725 2.191.701-2.175h.544l-1.024 2.963h-.45l-.717-2.12-.724 2.12h-.45l-1.024-2.963zm43.698 0h2.182v.457h-1.663v.764h1.474v.465h-1.474v.788h1.687v.465h-2.207v-2.939zm-20.254 24.327c-.228 0-.441-.039-.654-.118a1.834 1.834 0 01-.575-.355l.315-.37c.142.126.284.22.434.283.15.063.315.103.496.103a.614.614 0 00.378-.103.319.319 0 00.142-.268v-.007a.377.377 0 00-.023-.142.333.333 0 00-.103-.118.703.703 0 00-.205-.103 3.027 3.027 0 00-.33-.094 3.32 3.32 0 01-.418-.127 1.401 1.401 0 01-.308-.165.732.732 0 01-.189-.244.782.782 0 01-.063-.347v-.008a.73.73 0 01.079-.347.766.766 0 01.205-.268.882.882 0 01.315-.173c.126-.039.26-.063.402-.063.213 0 .41.031.583.095.173.063.331.157.489.275l-.276.394a1.748 1.748 0 00-.402-.228 1.046 1.046 0 00-.402-.079.548.548 0 00-.355.102.307.307 0 00-.126.253v.008c0 .055.008.102.032.149.023.04.055.079.11.118.055.04.126.071.213.103.087.031.205.063.347.094.15.04.291.079.41.134.118.048.22.103.299.174.079.071.142.15.181.236.04.095.063.197.063.315v.008a.828.828 0 01-.291.647.972.972 0 01-.331.173c-.15.047-.292.063-.442.063z" fill="#fff"></path></g><defs><clipPath id="clip0_3_74"><path fill="#fff" d="M0 0h161.163v135H0z"></path></clipPath></defs></svg> 